<?xml version="1.0" encoding="UTF-8" standalone="no"?>
<!-- Created with Inkscape (http://www.inkscape.org/) -->

<svg
   xmlns:dc="http://purl.org/dc/elements/1.1/"
   xmlns:cc="http://creativecommons.org/ns#"
   xmlns:rdf="http://www.w3.org/1999/02/22-rdf-syntax-ns#"
   xmlns:svg="http://www.w3.org/2000/svg"
   xmlns="http://www.w3.org/2000/svg"
   xmlns:sodipodi="http://sodipodi.sourceforge.net/DTD/sodipodi-0.dtd"
   xmlns:inkscape="http://www.inkscape.org/namespaces/inkscape"
   width="319.77814"
   height="68.000023"
   id="svg3011"
   version="1.1"
   inkscape:version="0.48.3.1 r9886"
   inkscape:export-filename="/home/keikreutler/ownCloud/TransforMap/logo.png"
   inkscape:export-xdpi="90"
   inkscape:export-ydpi="90"
   sodipodi:docname="New document 2">
  <defs
     id="defs3013" />
  <sodipodi:namedview
     id="base"
     pagecolor="#ffffff"
     bordercolor="#666666"
     borderopacity="1.0"
     inkscape:pageopacity="0.0"
     inkscape:pageshadow="2"
     inkscape:zoom="1.4"
     inkscape:cx="303.0069"
     inkscape:cy="32.608641"
     inkscape:document-units="px"
     inkscape:current-layer="layer1"
     showgrid="false"
     showguides="true"
     inkscape:guide-bbox="true"
     fit-margin-top="1"
     fit-margin-right="1"
     fit-margin-left="1"
     fit-margin-bottom="1"
     inkscape:window-width="1366"
     inkscape:window-height="744"
     inkscape:window-x="0"
     inkscape:window-y="24"
     inkscape:window-maximized="1">
    <sodipodi:guide
       orientation="0,1"
       position="193.18893,646.95102"
       id="guide3166" />
    <sodipodi:guide
       orientation="0,1"
       position="209.0821,610.25002"
       id="guide3168" />
  </sodipodi:namedview>
  <metadata
     id="metadata3016">
    <rdf:RDF>
      <cc:Work
         rdf:about="">
        <dc:format>image/svg+xml</dc:format>
        <dc:type
           rdf:resource="http://purl.org/dc/dcmitype/StillImage" />
        <dc:title></dc:title>
      </cc:Work>
    </rdf:RDF>
  </metadata>
  <g
     inkscape:label="Layer 1"
     inkscape:groupmode="layer"
     id="layer1"
     transform="translate(-12.88219,-958.36218)">
    <path
       style="display:inline"
       id="path2986"
       d="m 39.67209,976.6249 c 0.13866,-0.4161 0.27731,-0.7627 0.34664,-1.1093 0.41597,-1.1093 0.69328,-2.3572 0.69328,-3.60505 0,-0.13869 0,-0.2774 0,-0.48529 0.0693,-6.58619 -5.33823,-12.06308 -12.06302,-12.06308 -6.65546,0 -12.06302,5.40749 -12.06302,12.06308 0,0.13859 0,0.27729 0,0.48529 0.0693,1.24785 0.27731,2.49575 0.69328,3.60505 0.83193,2.5651 2.21848,5.4768 3.74369,8.1112 -4.36764,4.5064 -7.14075,10.6073 -7.14075,17.332 0,13.4496 10.95378,24.4034 24.40335,24.4034 13.44957,0 24.40335,-10.9538 24.40335,-24.4034 0.0693,-13.0336 -10.12184,-23.6406 -23.0168,-24.3339 z m -5.82352,13.3108 h 8.94327 c 0.55462,2.8424 0.90126,6.2395 0.90126,10.3992 H 32.94731 c 0.0693,-4.1597 0.41596,-7.626 0.90126,-10.3992 z m -5.19958,5.061 c 0,0 1.59454,-2.08 3.67437,-5.061 h 0.13865 c -0.55462,2.9117 -0.90126,6.2395 -0.90126,10.3992 h -8.45798 c 0.0693,-3.397 0.97059,-6.7941 2.28782,-9.9139 1.87185,2.7732 3.2584,4.5757 3.2584,4.5757 z m -6.86344,5.3382 h -5.33824 c 0.13866,-3.8131 1.17858,-7.3488 3.05042,-10.3992 h 4.78362 c -1.52521,3.1891 -2.42647,6.7942 -2.4958,10.3992 z m 9.84453,1.2479 c 0,4.1596 0.34664,7.5567 0.90126,10.3991 H 25.6679 c -1.52521,-3.2583 -2.4958,-6.794 -2.56513,-10.3991 h 8.52731 z m 1.10924,11.7857 c 0.97059,4.4369 2.35714,7.3487 3.7437,9.4979 -0.20798,0 -0.41597,0 -0.62395,-0.069 -3.81302,-1.5946 -7.21008,-5.061 -9.56722,-9.4286 h 6.44747 z m 0.20799,-11.7857 H 43.6931 c -0.0693,4.1596 -0.41597,7.626 -0.90126,10.3991 h -9.0126 c -0.48529,-2.7731 -0.83193,-6.2395 -0.83193,-10.3991 z m 10.88444,11.7164 h 6.44748 c -2.28781,4.3676 -5.68487,7.7647 -9.49789,9.3592 -0.20799,0.069 -0.4853,0.069 -0.69328,0.069 1.38655,-2.0798 2.77311,-4.9223 3.74369,-9.4286 z m 0.27732,-1.3173 c 0.55462,-2.9117 0.90126,-6.2395 0.90126,-10.3991 h 8.5273 c -0.13865,3.6051 -1.10924,7.2794 -2.56512,10.3991 h -6.86344 z m 0,-22.0462 h 6.86344 c 1.52521,3.2585 2.4958,6.7942 2.56512,10.3992 H 44.941 c 0,-4.1597 -0.34664,-7.5568 -0.83193,-10.3992 z m 10.74579,11.6471 h 5.33823 c -0.13865,3.8131 -1.17857,7.3487 -3.05042,10.3991 h -4.78361 c 1.45588,-3.1197 2.35714,-6.794 2.4958,-10.3991 z m 0,-1.2479 c -0.0693,-3.605 -1.03992,-7.1407 -2.4958,-10.3992 H 57.212 c 1.80252,3.1198 2.91176,6.5861 3.05042,10.3992 h -5.40756 z m -3.05042,-11.7164 c -1.80252,-3.4664 -4.29832,-6.4475 -7.07142,-8.5274 4.78361,1.456 8.87394,4.5063 11.71638,8.5274 h -4.64496 z m -11.09243,-9.4287 c 3.81302,1.5947 7.21008,5.0611 9.56722,9.4287 h -6.44748 c -0.97058,-4.4369 -2.35714,-7.3487 -3.74369,-9.4979 0.20798,0 0.41597,0 0.62395,0.069 z m 1.80252,9.4287 h -8.38865 c 0.20798,-0.7626 0.34664,-1.4559 0.55462,-2.1492 1.38655,-2.2877 2.84243,-4.7835 3.95168,-7.2795 1.31722,2.0107 2.91176,4.8531 3.88235,9.4287 z m -18.37184,0.069 h -3.81302 c 0.69327,-0.9706 1.31722,-1.8718 2.14915,-2.7038 0.55463,0.9013 1.10925,1.8025 1.66387,2.7038 z m -2.42647,12.895 c 0.0693,3.6051 1.03992,7.1407 2.4958,10.3991 H 19.4284 c -1.80251,-3.1197 -2.91176,-6.586 -3.05041,-10.3991 h 5.33823 z m 3.11975,11.7856 c 1.80252,3.4664 4.22899,6.4477 7.00209,8.5967 -4.71428,-1.5945 -8.80461,-4.5756 -11.64705,-8.5967 h 4.64496 z m 9.28991,0 h 8.38865 c -1.10924,4.6451 -2.63445,7.5568 -4.02101,9.5673 -0.0693,0 -0.13865,0 -0.20798,0 -0.0693,0 -0.13866,0 -0.20798,0 -1.38656,-2.0798 -2.9811,-4.9222 -3.95168,-9.5673 z m 10.53781,8.5274 c 2.84243,-2.0797 5.2689,-5.1303 7.00209,-8.5967 h 4.57563 c -2.70378,4.0904 -6.72478,7.0715 -11.57772,8.5967 z m -16.0147,-56.29394 c 3.32773,0 5.82353,2.70377 5.82353,5.82359 0.0693,3.25845 -2.63446,5.82345 -5.82353,5.82345 -3.18908,0 -5.82353,-2.7038 -5.82353,-5.82345 0,-3.18922 2.70378,-5.82359 5.82353,-5.82359 z"
       inkscape:connector-curvature="0" />
    <g
       style="font-size:40px;font-style:normal;font-variant:normal;font-weight:normal;font-stretch:normal;line-height:125%;letter-spacing:4.65999889px;word-spacing:0px;fill:#000000;fill-opacity:1;stroke:none;font-family:Grandesign Neue Serif;-inkscape-font-specification:Grandesign Neue Serif"
       id="text3028"
       transform="matrix(1.465033,0,0,1.465033,459.29707,-57.131019)">
      <path
         d="m 233.32223,385.10941 -7.25722,0 -4.62779,21.94695 -2.80472,0 4.62779,-21.94695 -7.1871,0 0.52588,-2.59437 17.24905,0 -0.52589,2.59437"
         style="font-style:italic;letter-spacing:0px;font-family:PT Sans;-inkscape-font-specification:PT Sans Italic"
         id="path3144"
         inkscape:connector-curvature="0" />
      <path
         d="m 239.63012,391.84074 c -0.21037,-0.0467 -0.43241,-0.0818 -0.66612,-0.10517 -0.21037,-0.0234 -0.40903,-0.0351 -0.596,-0.0351 -1.19203,1e-5 -2.22042,0.37397 -3.08521,1.12189 -0.86479,0.74794 -1.54259,1.65947 -2.03342,2.7346 l -2.41907,11.49936 -2.62943,0 3.71626,-17.52951 1.82307,0 0,3.01507 0.14024,0 c 0.28047,-0.44406 0.5843,-0.85309 0.91153,-1.22706 0.32721,-0.39733 0.68949,-0.74791 1.08683,-1.05177 0.39733,-0.30383 0.82972,-0.53756 1.29718,-0.70119 0.46745,-0.18696 0.98165,-0.28045 1.5426,-0.28047 0.51419,2e-5 1.05176,0.0819 1.61272,0.24542 l -0.70118,2.31389"
         style="font-style:italic;letter-spacing:0px;font-family:PT Sans;-inkscape-font-specification:PT Sans Italic"
         id="path3146"
         inkscape:connector-curvature="0" />
      <path
         d="m 252.88846,400.14973 c -0.18699,0.8648 -0.31555,1.74127 -0.38565,2.62943 -0.0701,0.88817 -0.10519,1.71789 -0.10518,2.48919 -1e-5,0.35059 -1e-5,0.6895 0,1.01672 -1e-5,0.30384 0.0234,0.58432 0.0701,0.84141 l -1.9633,0 -0.49083,-3.05013 -0.14024,0 c -0.28048,0.39734 -0.63107,0.80635 -1.05177,1.22706 -0.39734,0.39733 -0.84142,0.75962 -1.33224,1.08683 -0.49084,0.32722 -1.01672,0.58432 -1.57766,0.7713 -0.56095,0.21036 -1.15695,0.31553 -1.78801,0.31553 -2.78135,0 -4.17202,-1.81138 -4.17202,-5.43415 0,-1.49584 0.18698,-3.01507 0.56094,-4.55767 0.39733,-1.54259 0.99334,-2.93326 1.78801,-4.17203 0.81804,-1.23874 1.85812,-2.25545 3.12026,-3.05013 1.28549,-0.79466 2.82809,-1.19199 4.62779,-1.19201 0.65442,2e-5 1.44909,0.0819 2.38401,0.24541 0.95827,0.14026 1.84643,0.33893 2.66449,0.59601 l -2.20872,10.23723 m -7.9584,5.08356 c 0.56094,0 1.0985,-0.12854 1.61272,-0.38565 0.51419,-0.28047 0.99332,-0.61937 1.43742,-1.01671 0.46744,-0.39733 0.87646,-0.81804 1.22706,-1.26212 0.35058,-0.46745 0.63106,-0.89985 0.84142,-1.29719 l 1.96331,-9.46594 c -0.70119,-0.3272 -1.58936,-0.49081 -2.66449,-0.49082 -1.07516,10e-6 -2.02175,0.31555 -2.83978,0.94659 -0.81805,0.63108 -1.50755,1.46081 -2.06849,2.48919 -0.56095,1.00504 -0.98166,2.1503 -1.26212,3.43579 -0.28048,1.28551 -0.42071,2.571 -0.42071,3.85649 0,0.88817 0.17529,1.64778 0.52589,2.27884 0.35058,0.60769 0.89984,0.91153 1.64777,0.91153"
         style="font-style:italic;letter-spacing:0px;font-family:PT Sans;-inkscape-font-specification:PT Sans Italic"
         id="path3148"
         inkscape:connector-curvature="0" />
      <path
         d="m 267.02875,407.05636 2.34897,-11.07865 c 0.0935,-0.4207 0.17527,-0.82972 0.2454,-1.22707 0.0701,-0.4207 0.10517,-0.79465 0.10518,-1.12189 -10e-6,-0.67779 -0.16362,-1.22705 -0.49083,-1.64777 -0.30385,-0.42069 -0.88817,-0.63105 -1.75295,-0.63106 -0.6077,10e-6 -1.2037,0.14025 -1.788,0.4207 -0.58433,0.28049 -1.13359,0.64277 -1.64779,1.08683 -0.5142,0.42073 -0.98165,0.89986 -1.40236,1.43742 -0.39734,0.51422 -0.73624,1.02842 -1.01671,1.5426 l -2.3139,11.21889 -2.62942,0 3.71625,-17.52951 1.82307,0 -0.14022,3.01507 0.14022,0 c 0.30384,-0.37395 0.66613,-0.75959 1.08683,-1.15695 0.42071,-0.42069 0.88816,-0.79465 1.40237,-1.12188 0.53757,-0.3272 1.13357,-0.59599 1.78801,-0.80636 0.65443,-0.23371 1.37897,-0.35058 2.17366,-0.35059 1.16862,1e-5 2.09184,0.28049 2.76966,0.84141 0.6778,0.56097 1.0167,1.54262 1.01671,2.94496 -10e-6,0.7012 -0.10518,1.54261 -0.31553,2.52425 l -2.48919,11.6396 -2.62943,0"
         style="font-style:italic;letter-spacing:0px;font-family:PT Sans;-inkscape-font-specification:PT Sans Italic"
         id="path3150"
         inkscape:connector-curvature="0" />
      <path
         d="m 282.78725,402.11304 c -10e-6,-0.60769 -0.15193,-1.12188 -0.45577,-1.5426 -0.30386,-0.4207 -0.68951,-0.79466 -1.15695,-1.12189 -0.46746,-0.35058 -0.96997,-0.68949 -1.50754,-1.01671 -0.53758,-0.3272 -1.04009,-0.68949 -1.50754,-1.08683 -0.46746,-0.4207 -0.85311,-0.89983 -1.15695,-1.43742 -0.30384,-0.56094 -0.45576,-1.25042 -0.45576,-2.06848 0,-0.65442 0.15192,-1.26211 0.45576,-1.82307 0.32722,-0.58431 0.75961,-1.08682 1.29719,-1.50754 0.56094,-0.44407 1.21537,-0.78297 1.96331,-1.01671 0.77129,-0.25708 1.60102,-0.38564 2.48919,-0.38565 1.23874,1e-5 2.19702,0.0818 2.87484,0.24541 0.67779,0.16363 1.28548,0.39735 1.82307,0.70118 l -0.87648,2.10354 c -0.93492,-0.53756 -2.20873,-0.80634 -3.82143,-0.80635 -0.98166,10e-6 -1.79971,0.21037 -2.45414,0.63106 -0.63107,0.39735 -0.9466,1.01673 -0.94659,1.85813 -10e-6,0.49083 0.15192,0.92323 0.45577,1.29718 0.30384,0.3506 0.68949,0.68951 1.15695,1.01671 0.46744,0.32724 0.96996,0.66613 1.50753,1.01672 0.53756,0.32722 1.04008,0.71287 1.50754,1.15694 0.46745,0.42072 0.85309,0.92323 1.15695,1.50754 0.30383,0.58432 0.45576,1.27382 0.45577,2.06849 -1e-5,1.82307 -0.61939,3.21374 -1.85813,4.17202 -1.21539,0.93491 -2.85147,1.40236 -4.90827,1.40236 -1.05177,0 -2.02174,-0.10517 -2.9099,-0.31553 -0.86479,-0.21035 -1.56597,-0.47914 -2.10354,-0.80636 l 0.98166,-2.20872 c 0.46745,0.30385 1.07513,0.56095 1.82307,0.7713 0.77129,0.21036 1.56596,0.31553 2.38401,0.31553 1.14526,0 2.05679,-0.24541 2.7346,-0.73624 0.70118,-0.51419 1.05177,-1.30886 1.05178,-2.38401"
         style="font-style:italic;letter-spacing:0px;font-family:PT Sans;-inkscape-font-specification:PT Sans Italic"
         id="path3152"
         inkscape:connector-curvature="0" />
      <path
         d="m 295.35372,391.77062 -2.80472,16.47775 c -0.14025,0.86478 -0.33891,1.65946 -0.59601,2.38402 -0.23373,0.74792 -0.54926,1.39066 -0.94659,1.92824 -0.39734,0.56094 -0.89985,0.99334 -1.50754,1.29719 -0.60769,0.32721 -1.34393,0.49081 -2.20872,0.49082 -0.70118,-10e-6 -1.34393,-0.0585 -1.92825,-0.17529 -0.60768,-0.0935 -1.16863,-0.26879 -1.68283,-0.52589 l 0.7713,-1.9633 c 0.46746,0.1636 0.89985,0.26878 1.29718,0.31553 0.37397,0.0701 0.84142,0.10517 1.40236,0.10518 0.88816,-1e-5 1.55429,-0.43241 1.99837,-1.29719 0.44408,-0.84142 0.81804,-2.18535 1.12189,-4.03179 l 2.45413,-15.00527 -2.69954,0 0.45576,-2.24377 2.55931,0 0.45577,-2.34896 c 0.1636,-0.86477 0.36227,-1.6127 0.596,-2.24378 0.23373,-0.63103 0.53757,-1.15692 0.91154,-1.57765 0.39732,-0.42069 0.87647,-0.73622 1.43742,-0.9466 0.58431,-0.21033 1.28549,-0.3155 2.10354,-0.31553 0.77129,3e-5 1.51921,0.0819 2.24378,0.24541 0.72454,0.14027 1.37898,0.33893 1.96331,0.59601 l -0.7713,2.06848 c -1.14528,-0.44406 -2.23211,-0.6661 -3.26049,-0.66612 -0.8648,2e-5 -1.49587,0.30386 -1.89319,0.91153 -0.39734,0.58434 -0.70119,1.53093 -0.91154,2.83979 l -0.24541,1.43742 3.54096,0 -0.42071,2.24377 -3.43578,0"
         style="font-style:italic;letter-spacing:0px;font-family:PT Sans;-inkscape-font-specification:PT Sans Italic"
         id="path3154"
         inkscape:connector-curvature="0" />
      <path
         d="m 299.22062,401.58715 c 0,-1.84643 0.23373,-3.52927 0.70118,-5.0485 0.49082,-1.54259 1.15695,-2.86314 1.99836,-3.96167 0.84142,-1.0985 1.81138,-1.9516 2.9099,-2.55931 1.12189,-0.60767 2.31389,-0.91152 3.57603,-0.91153 0.98164,1e-5 1.81137,0.16363 2.48919,0.49082 0.70117,0.30387 1.26211,0.73626 1.68283,1.29719 0.44407,0.53758 0.7596,1.16865 0.94659,1.89319 0.18697,0.70119 0.28047,1.43743 0.28048,2.20872 -1e-5,1.75296 -0.23374,3.38905 -0.70118,4.90826 -0.4441,1.51923 -1.07516,2.83978 -1.89319,3.96167 -0.79469,1.12189 -1.72959,2.01005 -2.80472,2.66449 -1.07515,0.63106 -2.24378,0.94659 -3.5059,0.94659 -1.05178,0 -1.93994,-0.16361 -2.6645,-0.49082 -0.70118,-0.35059 -1.2855,-0.80636 -1.75295,-1.36731 -0.44407,-0.56094 -0.7713,-1.192 -0.98165,-1.89318 -0.18698,-0.70119 -0.28047,-1.41405 -0.28047,-2.13861 m 2.80472,-0.63106 c 0,1.379 0.2571,2.44245 0.7713,3.19037 0.51419,0.72456 1.33224,1.08683 2.45413,1.08683 0.7713,0 1.49585,-0.26878 2.17367,-0.80635 0.70116,-0.56095 1.30886,-1.30887 1.82306,-2.24378 0.53756,-0.9349 0.95827,-1.99836 1.26213,-3.19037 0.3272,-1.21538 0.49081,-2.4775 0.49082,-3.78638 -10e-6,-1.192 -0.22204,-2.1269 -0.66612,-2.80472 -0.42072,-0.70117 -1.23876,-1.05176 -2.45413,-1.05177 -0.77131,10e-6 -1.50755,0.26879 -2.20871,0.80635 -0.70119,0.51421 -1.33225,1.2154 -1.8932,2.10355 -0.53757,0.88817 -0.96997,1.91657 -1.29717,3.08519 -0.30386,1.14527 -0.45578,2.34897 -0.45578,3.61108"
         style="font-style:italic;letter-spacing:0px;font-family:PT Sans;-inkscape-font-specification:PT Sans Italic"
         id="path3156"
         inkscape:connector-curvature="0" />
      <path
         d="m 327.62008,391.84074 c -0.21036,-0.0467 -0.43241,-0.0818 -0.66612,-0.10517 -0.21036,-0.0234 -0.40903,-0.0351 -0.596,-0.0351 -1.19202,1e-5 -2.22041,0.37397 -3.0852,1.12189 -0.8648,0.74794 -1.5426,1.65947 -2.03342,2.7346 l -2.41907,11.49936 -2.62943,0 3.71626,-17.52951 1.82307,0 0,3.01507 0.14023,0 c 0.28047,-0.44406 0.58431,-0.85309 0.91154,-1.22706 0.3272,-0.39733 0.68949,-0.74791 1.08683,-1.05177 0.39732,-0.30383 0.82972,-0.53756 1.29718,-0.70119 0.46744,-0.18696 0.98165,-0.28045 1.5426,-0.28047 0.51418,2e-5 1.05176,0.0819 1.61272,0.24542 l -0.70119,2.31389"
         style="font-style:italic;letter-spacing:0px;font-family:PT Sans;-inkscape-font-specification:PT Sans Italic"
         id="path3158"
         inkscape:connector-curvature="0" />
      <path
         d="m 351.62676,394.32993 0.52589,-4.8732 -0.21036,0 -1.50754,3.92661 -5.22379,9.15041 -1.5426,0 -5.50427,-9.18547 -1.5426,-3.89155 -0.17529,0 0.70118,4.83814 0,12.76149 -4.55768,0 0,-24.54132 4.38238,0 6.55604,11.21889 1.15695,2.80472 0.14024,0 1.05177,-2.87484 6.20545,-11.14877 4.34732,0 0,24.54132 -4.80309,0 0,-12.72643"
         style="font-style:normal;font-weight:bold;-inkscape-font-specification:PT Sans Bold"
         id="path3160"
         inkscape:connector-curvature="0" />
      <path
         d="m 360.45397,390.54356 c 0.9349,-0.42069 2.04511,-0.74791 3.33061,-0.98166 1.28549,-0.25707 2.62942,-0.38563 4.03179,-0.38564 1.21536,10e-6 2.23207,0.15193 3.05013,0.45576 0.81803,0.28049 1.46078,0.68952 1.92825,1.22707 0.49081,0.53759 0.82971,1.18033 1.01671,1.92825 0.21034,0.74794 0.31551,1.58935 0.31553,2.52425 -2e-5,1.02841 -0.0351,2.06849 -0.10518,3.12025 -0.0701,1.02841 -0.11687,2.04512 -0.14023,3.05014 -2e-5,1.00503 0.0351,1.98668 0.10518,2.94496 0.0701,0.93491 0.24539,1.82307 0.52588,2.66448 l -3.71626,0 -0.73624,-2.41907 -0.17529,0 c -0.46747,0.72456 -1.1219,1.35562 -1.96331,1.89319 -0.81805,0.5142 -1.88151,0.7713 -3.19037,0.7713 -0.81805,0 -1.55429,-0.11686 -2.20872,-0.35059 -0.65444,-0.2571 -1.21538,-0.60769 -1.68283,-1.05178 -0.46746,-0.46745 -0.82974,-1.00502 -1.08683,-1.61271 -0.2571,-0.63106 -0.38565,-1.33224 -0.38565,-2.10354 0,-1.07514 0.23373,-1.97499 0.70118,-2.69955 0.49082,-0.74791 1.18031,-1.34392 2.06848,-1.78801 0.91153,-0.46744 1.98667,-0.78297 3.22543,-0.94659 1.26212,-0.18697 2.66448,-0.24541 4.20709,-0.1753 0.16359,-1.30886 0.0701,-2.24377 -0.28048,-2.80472 -0.35059,-0.5843 -1.13358,-0.87646 -2.34895,-0.87648 -0.91154,2e-5 -1.88151,0.0935 -2.9099,0.28047 -1.00503,0.187 -1.83476,0.43241 -2.48919,0.73624 l -1.08683,-3.40072 m 5.78474,13.04196 c 0.91152,0 1.63608,-0.19866 2.17366,-0.596 0.53756,-0.42071 0.93489,-0.86479 1.19201,-1.33225 l 0,-2.27884 c -0.72457,-0.0701 -1.42575,-0.0818 -2.10355,-0.035 -0.65444,0.0467 -1.23875,0.15192 -1.75295,0.31553 -0.5142,0.16361 -0.92323,0.39734 -1.22706,0.70118 -0.30385,0.30385 -0.45578,0.6895 -0.45577,1.15695 -10e-6,0.65443 0.18698,1.16864 0.56094,1.54259 0.39734,0.35059 0.9349,0.52589 1.61272,0.52589"
         style="font-style:normal;font-weight:bold;-inkscape-font-specification:PT Sans Bold"
         id="path3162"
         inkscape:connector-curvature="0" />
      <path
         d="m 377.95171,389.52685 3.33061,0 0.52589,2.10354 0.14023,0 c 0.60769,-0.88814 1.32055,-1.54258 2.1386,-1.96331 0.84141,-0.42069 1.85813,-0.63104 3.05014,-0.63106 2.19702,2e-5 3.84479,0.7012 4.94333,2.10354 1.09849,1.379 1.64775,3.61109 1.64777,6.69628 -2e-5,1.49586 -0.17531,2.85147 -0.52589,4.06685 -0.3506,1.192 -0.87649,2.20871 -1.57765,3.05013 -0.67782,0.84142 -1.51924,1.48416 -2.52425,1.92825 -0.98166,0.44408 -2.11525,0.66612 -3.40073,0.66612 -0.72456,0 -1.32057,-0.0585 -1.78801,-0.17529 -0.46746,-0.0935 -0.93491,-0.2571 -1.40236,-0.49083 l 0,7.1871 -4.55768,0 0,-24.54132 m 7.81817,3.36566 c -0.88817,2e-5 -1.58935,0.22206 -2.10354,0.66612 -0.49084,0.4441 -0.87649,1.11022 -1.15695,1.99837 l 0,7.29228 c 0.32721,0.25711 0.6778,0.46746 1.05177,0.63106 0.39732,0.14024 0.91153,0.21036 1.5426,0.21036 1.30886,0 2.29051,-0.45577 2.94496,-1.36731 0.65442,-0.9349 0.98164,-2.46581 0.98165,-4.59273 -1e-5,-1.54259 -0.25712,-2.7346 -0.7713,-3.57602 -0.51421,-0.8414 -1.34394,-1.26211 -2.48919,-1.26213"
         style="font-style:normal;font-weight:bold;-inkscape-font-specification:PT Sans Bold"
         id="path3164"
         inkscape:connector-curvature="0" />
    </g>
    <g
       style="font-size:40px;font-style:normal;font-variant:normal;font-weight:normal;font-stretch:normal;line-height:125%;letter-spacing:4.65999889px;word-spacing:0px;fill:#000000;fill-opacity:1;stroke:none;font-family:Grandesign Neue Serif;-inkscape-font-specification:Grandesign Neue Serif"
       id="text3028-6"
       transform="matrix(1.283969,0,0,1.283969,-245.564,214.2574)">
      <path
         d="m 268.25714,597.14329 -8.28,0 -5.28,25.04 -3.2,0 5.28,-25.04 -8.2,0 0.6,-2.96 19.68,0 -0.6,2.96"
         style="font-style:italic;letter-spacing:0px;font-family:PT Sans;-inkscape-font-specification:PT Sans Italic"
         id="path3193"
         inkscape:connector-curvature="0" />
      <path
         d="m 275.45401,604.82329 c -0.24001,-0.0533 -0.49334,-0.0933 -0.76,-0.12 -0.24001,-0.0267 -0.46668,-0.04 -0.68,-0.04 -1.36001,2e-5 -2.53334,0.42668 -3.52,1.28 -0.98667,0.85335 -1.76,1.89335 -2.32,3.12 l -2.76,13.12 -3,0 4.24,-20 2.08,0 0,3.44 0.16,0 c 0.32,-0.50665 0.66666,-0.97332 1.04,-1.4 0.37333,-0.45332 0.78666,-0.85332 1.24,-1.2 0.45333,-0.34665 0.94666,-0.61331 1.48,-0.8 0.53333,-0.21331 1.11999,-0.31998 1.76,-0.32 0.58666,2e-5 1.19999,0.0933 1.84,0.28 l -0.8,2.64"
         style="font-style:italic;letter-spacing:0px;font-family:PT Sans;-inkscape-font-specification:PT Sans Italic"
         id="path3195"
         inkscape:connector-curvature="0" />
      <path
         d="m 290.58089,614.30329 c -0.21335,0.98667 -0.36002,1.98667 -0.44,3 -0.08,1.01334 -0.12002,1.96 -0.12,2.84 -2e-5,0.4 -2e-5,0.78667 0,1.16 -2e-5,0.34667 0.0267,0.66667 0.08,0.96 l -2.24,0 -0.56,-3.48 -0.16,0 c -0.32001,0.45333 -0.72001,0.92 -1.2,1.4 -0.45335,0.45333 -0.96001,0.86667 -1.52,1.24 -0.56001,0.37333 -1.16001,0.66667 -1.8,0.88 -0.64001,0.24 -1.32001,0.36 -2.04,0.36 -3.17334,0 -4.76,-2.06667 -4.76,-6.2 0,-1.70666 0.21333,-3.43999 0.64,-5.2 0.45333,-1.75999 1.13333,-3.34665 2.04,-4.76 0.93333,-1.41332 2.11999,-2.57332 3.56,-3.48 1.46666,-0.90665 3.22665,-1.35998 5.28,-1.36 0.74665,2e-5 1.65332,0.0933 2.72,0.28 1.09332,0.16002 2.10665,0.38669 3.04,0.68 l -2.52,11.68 m -9.08,5.8 c 0.63999,0 1.25332,-0.14667 1.84,-0.44 0.58666,-0.32 1.13332,-0.70666 1.64,-1.16 0.53332,-0.45333 0.99999,-0.93333 1.4,-1.44 0.39999,-0.53333 0.71999,-1.02666 0.96,-1.48 l 2.24,-10.8 c -0.80002,-0.37332 -1.81335,-0.55998 -3.04,-0.56 -1.22668,2e-5 -2.30668,0.36002 -3.24,1.08 -0.93334,0.72001 -1.72001,1.66668 -2.36,2.84 -0.64001,1.14668 -1.12001,2.45334 -1.44,3.92 -0.32001,1.46667 -0.48001,2.93334 -0.48,4.4 -1e-5,1.01334 0.19999,1.88 0.6,2.6 0.39999,0.69333 1.02666,1.04 1.88,1.04"
         style="font-style:italic;letter-spacing:0px;font-family:PT Sans;-inkscape-font-specification:PT Sans Italic"
         id="path3197"
         inkscape:connector-curvature="0" />
      <path
         d="m 306.71401,622.18329 2.68,-12.64 c 0.10665,-0.47999 0.19999,-0.94665 0.28,-1.4 0.08,-0.47999 0.11999,-0.90665 0.12,-1.28 -1e-5,-0.77332 -0.18668,-1.39998 -0.56,-1.88 -0.34668,-0.47998 -1.01334,-0.71998 -2,-0.72 -0.69334,2e-5 -1.37334,0.16002 -2.04,0.48 -0.66667,0.32002 -1.29334,0.73335 -1.88,1.24 -0.58667,0.48001 -1.12,1.02668 -1.6,1.64 -0.45334,0.58668 -0.84,1.17335 -1.16,1.76 l -2.64,12.8 -3,0 4.24,-20 2.08,0 -0.16,3.44 0.16,0 c 0.34666,-0.42665 0.76,-0.86665 1.24,-1.32 0.47999,-0.47998 1.01333,-0.90665 1.6,-1.28 0.61333,-0.37332 1.29333,-0.67998 2.04,-0.92 0.74666,-0.26665 1.57332,-0.39998 2.48,-0.4 1.33332,2e-5 2.38665,0.32002 3.16,0.96 0.77332,0.64002 1.15998,1.76002 1.16,3.36 -2e-5,0.80001 -0.12002,1.76001 -0.36,2.88 l -2.84,13.28 -3,0"
         style="font-style:italic;letter-spacing:0px;font-family:PT Sans;-inkscape-font-specification:PT Sans Italic"
         id="path3199"
         inkscape:connector-curvature="0" />
      <path
         d="m 324.69339,616.54329 c -1e-5,-0.69333 -0.17334,-1.27999 -0.52,-1.76 -0.34668,-0.47999 -0.78668,-0.90666 -1.32,-1.28 -0.53334,-0.39999 -1.10667,-0.78666 -1.72,-1.16 -0.61334,-0.37332 -1.18667,-0.78666 -1.72,-1.24 -0.53334,-0.47999 -0.97334,-1.02666 -1.32,-1.64 -0.34667,-0.63999 -0.52,-1.42665 -0.52,-2.36 0,-0.74665 0.17333,-1.43998 0.52,-2.08 0.37333,-0.66665 0.86666,-1.23998 1.48,-1.72 0.63999,-0.50665 1.38666,-0.89331 2.24,-1.16 0.87999,-0.29331 1.82666,-0.43998 2.84,-0.44 1.41332,2e-5 2.50665,0.0933 3.28,0.28 0.77332,0.18669 1.46665,0.45335 2.08,0.8 l -1,2.4 c -1.06668,-0.61332 -2.52001,-0.91998 -4.36,-0.92 -1.12001,2e-5 -2.05334,0.24002 -2.8,0.72 -0.72001,0.45335 -1.08001,1.16001 -1.08,2.12 -1e-5,0.56001 0.17333,1.05335 0.52,1.48 0.34666,0.40001 0.78666,0.78668 1.32,1.16 0.53332,0.37334 1.10666,0.76001 1.72,1.16 0.61332,0.37334 1.18665,0.81334 1.72,1.32 0.53332,0.48001 0.97332,1.05334 1.32,1.72 0.34665,0.66667 0.51999,1.45334 0.52,2.36 -1e-5,2.08 -0.70668,3.66667 -2.12,4.76 -1.38668,1.06667 -3.25334,1.6 -5.6,1.6 -1.20001,0 -2.30667,-0.12 -3.32,-0.36 -0.98667,-0.24 -1.78667,-0.54667 -2.4,-0.92 l 1.12,-2.52 c 0.53333,0.34667 1.22666,0.64 2.08,0.88 0.88,0.24 1.78666,0.36 2.72,0.36 1.30666,0 2.34666,-0.28 3.12,-0.84 0.79999,-0.58666 1.19999,-1.49333 1.2,-2.72"
         style="font-style:italic;letter-spacing:0px;font-family:PT Sans;-inkscape-font-specification:PT Sans Italic"
         id="path3201"
         inkscape:connector-curvature="0" />
      <path
         d="m 339.03089,604.74329 -3.2,18.8 c -0.16001,0.98666 -0.38667,1.89333 -0.68,2.72 -0.26667,0.85333 -0.62667,1.58666 -1.08,2.2 -0.45334,0.63999 -1.02667,1.13332 -1.72,1.48 -0.69334,0.37332 -1.53333,0.55999 -2.52,0.56 -0.8,-10e-6 -1.53333,-0.0667 -2.2,-0.2 -0.69333,-0.10668 -1.33333,-0.30668 -1.92,-0.6 l 0.88,-2.24 c 0.53334,0.18666 1.02667,0.30666 1.48,0.36 0.42667,0.08 0.96,0.11999 1.6,0.12 1.01333,-1e-5 1.77333,-0.49334 2.28,-1.48 0.50666,-0.96 0.93333,-2.49334 1.28,-4.6 l 2.8,-17.12 -3.08,0 0.52,-2.56 2.92,0 0.52,-2.68 c 0.18666,-0.98664 0.41333,-1.83998 0.68,-2.56 0.26666,-0.71998 0.61332,-1.31997 1.04,-1.8 0.45332,-0.47997 0.99999,-0.83997 1.64,-1.08 0.66666,-0.23997 1.46665,-0.35997 2.4,-0.36 0.87999,3e-5 1.73332,0.0934 2.56,0.28 0.82665,0.16003 1.57332,0.38669 2.24,0.68 l -0.88,2.36 c -1.30668,-0.50664 -2.54668,-0.75998 -3.72,-0.76 -0.98668,2e-5 -1.70668,0.34669 -2.16,1.04 -0.45334,0.66669 -0.80001,1.74669 -1.04,3.24 l -0.28,1.64 4.04,0 -0.48,2.56 -3.92,0"
         style="font-style:italic;letter-spacing:0px;font-family:PT Sans;-inkscape-font-specification:PT Sans Italic"
         id="path3203"
         inkscape:connector-curvature="0" />
      <path
         d="m 343.44276,615.94329 c 0,-2.10666 0.26667,-4.02666 0.8,-5.76 0.56,-1.75999 1.32,-3.26665 2.28,-4.52 0.96,-1.25332 2.06666,-2.22665 3.32,-2.92 1.27999,-0.69331 2.63999,-1.03998 4.08,-1.04 1.11999,2e-5 2.06666,0.18669 2.84,0.56 0.79999,0.34668 1.43999,0.84002 1.92,1.48 0.50665,0.61335 0.86665,1.33335 1.08,2.16 0.21332,0.80001 0.31999,1.64001 0.32,2.52 -1e-5,2.00001 -0.26668,3.86668 -0.8,5.6 -0.50668,1.73334 -1.22668,3.24 -2.16,4.52 -0.90668,1.28 -1.97334,2.29333 -3.2,3.04 -1.22667,0.72 -2.56001,1.08 -4,1.08 -1.2,0 -2.21334,-0.18667 -3.04,-0.56 -0.8,-0.4 -1.46667,-0.92 -2,-1.56 -0.50667,-0.64 -0.88,-1.36 -1.12,-2.16 -0.21333,-0.8 -0.32,-1.61333 -0.32,-2.44 m 3.2,-0.72 c 0,1.57334 0.29333,2.78667 0.88,3.64 0.58666,0.82667 1.52,1.24 2.8,1.24 0.87999,0 1.70666,-0.30667 2.48,-0.92 0.79999,-0.64 1.49332,-1.49333 2.08,-2.56 0.61332,-1.06666 1.09332,-2.27999 1.44,-3.64 0.37332,-1.38666 0.55999,-2.82666 0.56,-4.32 -1e-5,-1.35999 -0.25334,-2.42665 -0.76,-3.2 -0.48001,-0.79998 -1.41334,-1.19998 -2.8,-1.2 -0.88001,2e-5 -1.72001,0.30668 -2.52,0.92 -0.8,0.58668 -1.52,1.38668 -2.16,2.4 -0.61334,1.01335 -1.10667,2.18668 -1.48,3.52 -0.34667,1.30668 -0.52,2.68001 -0.52,4.12"
         style="font-style:italic;letter-spacing:0px;font-family:PT Sans;-inkscape-font-specification:PT Sans Italic"
         id="path3205"
         inkscape:connector-curvature="0" />
      <path
         d="m 375.84464,604.82329 c -0.24001,-0.0533 -0.49335,-0.0933 -0.76,-0.12 -0.24001,-0.0267 -0.46668,-0.04 -0.68,-0.04 -1.36001,2e-5 -2.53334,0.42668 -3.52,1.28 -0.98668,0.85335 -1.76001,1.89335 -2.32,3.12 l -2.76,13.12 -3,0 4.24,-20 2.08,0 0,3.44 0.16,0 c 0.31999,-0.50665 0.66666,-0.97332 1.04,-1.4 0.37332,-0.45332 0.78666,-0.85332 1.24,-1.2 0.45332,-0.34665 0.94665,-0.61331 1.48,-0.8 0.53332,-0.21331 1.11999,-0.31998 1.76,-0.32 0.58665,2e-5 1.19998,0.0933 1.84,0.28 l -0.8,2.64"
         style="font-style:italic;letter-spacing:0px;font-family:PT Sans;-inkscape-font-specification:PT Sans Italic"
         id="path3207"
         inkscape:connector-curvature="0" />
      <path
         d="m 403.33151,603.38329 0.4,-4.2 -0.2,0 -1.52,3.84 -7.28,12.64 -1,0 -7.72,-12.68 -1.44,-3.8 -0.2,0 0.56,4.16 0,18.84 -3.12,0 0,-28 2.48,0 8.76,14.32 1.32,3.12 0.08,0 1.24,-3.2 8.36,-14.24 2.6,0 0,28 -3.32,0 0,-18.8"
         style="font-style:normal;-inkscape-font-specification:PT Sans"
         id="path3209"
         inkscape:connector-curvature="0" />
      <path
         d="m 412.81214,603.66329 c 1.01333,-0.61332 2.18666,-1.06665 3.52,-1.36 1.35999,-0.29331 2.77332,-0.43998 4.24,-0.44 1.38665,2e-5 2.49332,0.18669 3.32,0.56 0.85332,0.37335 1.49332,0.86668 1.92,1.48 0.45332,0.58668 0.74665,1.24002 0.88,1.96 0.15998,0.72001 0.23998,1.44001 0.24,2.16 -2e-5,1.60001 -0.04,3.16001 -0.12,4.68 -0.08,1.52001 -0.12002,2.96001 -0.12,4.32 -2e-5,0.98667 0.04,1.92 0.12,2.8 0.08,0.88 0.22665,1.69333 0.44,2.44 l -2.36,0 -0.84,-2.8 -0.2,0 c -0.24001,0.37333 -0.54668,0.74667 -0.92,1.12 -0.34668,0.34667 -0.77335,0.66667 -1.28,0.96 -0.50668,0.26667 -1.09334,0.49333 -1.76,0.68 -0.66668,0.18667 -1.42668,0.28 -2.28,0.28 -0.85334,0 -1.65334,-0.13333 -2.4,-0.4 -0.72001,-0.26667 -1.34667,-0.64 -1.88,-1.12 -0.53334,-0.50667 -0.96,-1.10667 -1.28,-1.8 -0.29334,-0.69333 -0.44,-1.48 -0.44,-2.36 0,-1.17333 0.24,-2.14666 0.72,-2.92 0.48,-0.79999 1.14666,-1.42666 2,-1.88 0.87999,-0.47999 1.91999,-0.81332 3.12,-1 1.22666,-0.21332 2.57332,-0.31999 4.04,-0.32 0.37332,10e-6 0.73332,10e-6 1.08,0 0.37332,10e-6 0.74665,0.0267 1.12,0.08 0.08,-0.79999 0.11999,-1.51999 0.12,-2.16 -10e-6,-1.46665 -0.29335,-2.49332 -0.88,-3.08 -0.58668,-0.58665 -1.65335,-0.87998 -3.2,-0.88 -0.45334,2e-5 -0.94668,0.04 -1.48,0.12 -0.50668,0.0534 -1.04001,0.14668 -1.6,0.28 -0.53334,0.10668 -1.05334,0.25335 -1.56,0.44 -0.48001,0.16002 -0.90667,0.34668 -1.28,0.56 l -1,-2.4 m 5.68,16.04 c 0.74666,0 1.41332,-0.0933 2,-0.28 0.58665,-0.21333 1.09332,-0.46666 1.52,-0.76 0.42665,-0.32 0.77332,-0.66666 1.04,-1.04 0.29332,-0.37333 0.50665,-0.73333 0.64,-1.08 l 0,-3.32 c -0.37335,-0.0267 -0.76001,-0.04 -1.16,-0.04 -0.37335,-0.0267 -0.74668,-0.04 -1.12,-0.04 -0.82668,10e-6 -1.64001,0.0533 -2.44,0.16 -0.77334,0.08 -1.46667,0.25334 -2.08,0.52 -0.58667,0.24001 -1.06667,0.58667 -1.44,1.04 -0.34667,0.42667 -0.52001,0.97334 -0.52,1.64 -1e-5,0.93334 0.33333,1.70667 1,2.32 0.66666,0.58667 1.51999,0.88 2.56,0.88"
         style="font-style:normal;-inkscape-font-specification:PT Sans"
         id="path3211"
         inkscape:connector-curvature="0" />
      <path
         sodipodi:type="inkscape:offset"
         inkscape:radius="0"
         inkscape:original="M 441.65625 601.71875 C 440.40291 601.71877 439.26791 601.9621 438.28125 602.46875 C 437.32124 602.94877 436.55083 603.66043 435.9375 604.59375 L 435.78125 604.59375 L 435.1875 602.1875 L 432.96875 602.1875 L 432.96875 630.1875 L 436.1875 630.1875 L 436.1875 621.875 C 436.85416 622.16833 437.47124 622.36208 438.03125 622.46875 C 438.61791 622.60205 439.38832 622.65625 440.375 622.65625 C 441.76165 622.65625 443.00499 622.41292 444.125 621.90625 C 445.27165 621.39958 446.26248 620.68333 447.0625 619.75 C 447.86248 618.81667 448.47956 617.67709 448.90625 616.34375 C 449.35956 614.98376 449.56248 613.46126 449.5625 611.78125 C 449.56248 608.20793 448.93165 605.63585 447.625 604.0625 C 446.31832 602.48918 444.3229 601.71877 441.65625 601.71875 z M 441.0625 604.5 C 442.02249 604.50002 442.82874 604.6846 443.46875 605.03125 C 444.1354 605.37793 444.66248 605.86001 445.0625 606.5 C 445.48915 607.11335 445.78207 607.8746 445.96875 608.78125 C 446.15535 609.66126 446.24998 610.65668 446.25 611.75 C 446.24998 614.41667 445.71832 616.42584 444.625 617.8125 C 443.55832 619.1725 442.08999 619.875 440.25 619.875 C 439.23666 619.875 438.42582 619.78042 437.8125 619.59375 C 437.19916 619.38042 436.66749 619.09209 436.1875 618.71875 L 436.1875 608.78125 C 436.50749 607.34126 437.03916 606.2871 437.8125 605.59375 C 438.61249 604.87377 439.70249 604.50002 441.0625 604.5 z "
         style="font-style:normal;-inkscape-font-specification:PT Sans"
         id="path3217"
         d="m 441.65625,601.71875 c -1.25334,2e-5 -2.38834,0.24335 -3.375,0.75 -0.96001,0.48002 -1.73042,1.19168 -2.34375,2.125 l -0.15625,0 -0.59375,-2.40625 -2.21875,0 0,28 3.21875,0 0,-8.3125 c 0.66666,0.29333 1.28374,0.48708 1.84375,0.59375 0.58666,0.1333 1.35707,0.1875 2.34375,0.1875 1.38665,0 2.62999,-0.24333 3.75,-0.75 1.14665,-0.50667 2.13748,-1.22292 2.9375,-2.15625 0.79998,-0.93333 1.41706,-2.07291 1.84375,-3.40625 0.45331,-1.35999 0.65623,-2.88249 0.65625,-4.5625 -2e-5,-3.57332 -0.63085,-6.1454 -1.9375,-7.71875 -1.30668,-1.57332 -3.3021,-2.34373 -5.96875,-2.34375 z M 441.0625,604.5 c 0.95999,2e-5 1.76624,0.1846 2.40625,0.53125 0.66665,0.34668 1.19373,0.82876 1.59375,1.46875 0.42665,0.61335 0.71957,1.3746 0.90625,2.28125 0.1866,0.88001 0.28123,1.87543 0.28125,2.96875 -2e-5,2.66667 -0.53168,4.67584 -1.625,6.0625 -1.06668,1.36 -2.53501,2.0625 -4.375,2.0625 -1.01334,0 -1.82418,-0.0946 -2.4375,-0.28125 -0.61334,-0.21333 -1.14501,-0.50166 -1.625,-0.875 l 0,-9.9375 c 0.31999,-1.43999 0.85166,-2.49415 1.625,-3.1875 0.79999,-0.71998 1.88999,-1.09373 3.25,-1.09375 z" />
    </g>
    <text
       xml:space="preserve"
       style="font-size:40px;font-style:normal;font-variant:normal;font-weight:normal;font-stretch:normal;line-height:125%;letter-spacing:0px;word-spacing:0px;fill:#000000;fill-opacity:1;stroke:none;font-family:Grandesign Neue Serif;-inkscape-font-specification:Grandesign Neue Serif"
       x="538.57141"
       y="532.36218"
       id="text3170"
       sodipodi:linespacing="125%"><tspan
         sodipodi:role="line"
         id="tspan3172"
         x="538.57141"
         y="532.36218" /></text>
    <path
       style="display:inline"
       id="path2986-2"
       d="m 1014.3527,678.27562 c 0.1387,-0.4161 0.2773,-0.7627 0.3466,-1.1093 0.416,-1.1093 0.6933,-2.3572 0.6933,-3.60505 0,-0.13869 0,-0.2774 0,-0.48529 0.069,-6.58619 -5.3382,-12.06308 -12.063,-12.06308 -6.65547,0 -12.06303,5.40749 -12.06303,12.06308 0,0.13859 0,0.27729 0,0.48529 0.0693,1.24785 0.27731,2.49575 0.69328,3.60505 0.83193,2.5651 2.21848,5.4768 3.74369,8.1112 -4.36764,4.5064 -7.14075,10.6073 -7.14075,17.332 0,13.4496 10.95378,24.4034 24.40331,24.4034 13.4496,0 24.4034,-10.9538 24.4034,-24.4034 0.069,-13.0336 -10.1218,-23.6406 -23.0168,-24.3339 z m -5.8235,13.3108 h 8.9432 c 0.5547,2.8424 0.9013,6.2395 0.9013,10.3992 h -10.7458 c 0.069,-4.1597 0.416,-7.626 0.9013,-10.3992 z m -5.1996,5.061 c 0,0 1.5945,-2.08 3.6744,-5.061 h 0.1386 c -0.5546,2.9117 -0.9012,6.2395 -0.9012,10.3992 h -8.45803 c 0.0693,-3.397 0.97059,-6.7941 2.28783,-9.9139 1.8718,2.7732 3.2584,4.5757 3.2584,4.5757 z m -6.86345,5.3382 h -5.33824 c 0.13866,-3.8131 1.17858,-7.3488 3.05042,-10.3992 h 4.78362 c -1.52521,3.1891 -2.42647,6.7942 -2.4958,10.3992 z m 9.84455,1.2479 c 0,4.1596 0.3466,7.5567 0.9012,10.3991 h -6.8634 c -1.52521,-3.2583 -2.4958,-6.794 -2.56513,-10.3991 h 8.52733 z m 1.1092,11.7857 c 0.9706,4.4369 2.3572,7.3487 3.7437,9.4979 -0.208,0 -0.4159,0 -0.6239,-0.069 -3.813,-1.5946 -7.2101,-5.061 -9.5672,-9.4286 h 6.4474 z m 0.208,-11.7857 h 10.7458 c -0.069,4.1596 -0.416,7.626 -0.9013,10.3991 h -9.0126 c -0.4852,-2.7731 -0.8319,-6.2395 -0.8319,-10.3991 z m 10.8845,11.7164 h 6.4474 c -2.2878,4.3676 -5.6848,7.7647 -9.4979,9.3592 -0.2079,0.069 -0.4853,0.069 -0.6932,0.069 1.3865,-2.0798 2.7731,-4.9223 3.7437,-9.4286 z m 0.2773,-1.3173 c 0.5546,-2.9117 0.9012,-6.2395 0.9012,-10.3991 h 8.5273 c -0.1386,3.6051 -1.1092,7.2794 -2.5651,10.3991 h -6.8634 z m 0,-22.0462 h 6.8634 c 1.5252,3.2585 2.4958,6.7942 2.5651,10.3992 h -8.5966 c 0,-4.1597 -0.3466,-7.5568 -0.8319,-10.3992 z m 10.7458,11.6471 h 5.3382 c -0.1387,3.8131 -1.1786,7.3487 -3.0504,10.3991 h -4.7836 c 1.4558,-3.1197 2.3571,-6.794 2.4958,-10.3991 z m 0,-1.2479 c -0.069,-3.605 -1.04,-7.1407 -2.4958,-10.3992 h 4.8529 c 1.8025,3.1198 2.9118,6.5861 3.0504,10.3992 h -5.4075 z m -3.0505,-11.7164 c -1.8025,-3.4664 -4.2983,-6.4475 -7.0714,-8.5274 4.7836,1.456 8.874,4.5063 11.7164,8.5274 h -4.645 z m -11.0924,-9.4287 c 3.813,1.5947 7.2101,5.0611 9.5672,9.4287 h -6.4474 c -0.9706,-4.4369 -2.3572,-7.3487 -3.7437,-9.4979 0.2079,0 0.4159,0 0.6239,0.069 z m 1.8025,9.4287 h -8.3886 c 0.208,-0.7626 0.3466,-1.4559 0.5546,-2.1492 1.3866,-2.2877 2.8424,-4.7835 3.9517,-7.2795 1.3172,2.0107 2.9117,4.8531 3.8823,9.4287 z m -18.37181,0.069 h -3.81302 c 0.69327,-0.9706 1.31722,-1.8718 2.14915,-2.7038 0.55463,0.9013 1.10925,1.8025 1.66387,2.7038 z m -2.42647,12.895 c 0.0693,3.6051 1.03992,7.1407 2.4958,10.3991 H 994.109 c -1.80251,-3.1197 -2.91176,-6.586 -3.05041,-10.3991 h 5.33823 z m 3.11975,11.7856 c 1.80253,3.4664 4.22903,6.4477 7.00213,8.5967 -4.7143,-1.5945 -8.80465,-4.5756 -11.64709,-8.5967 h 4.64496 z m 9.28993,0 h 8.3886 c -1.1092,4.6451 -2.6344,7.5568 -4.021,9.5673 -0.069,0 -0.1386,0 -0.208,0 -0.069,0 -0.1386,0 -0.2079,0 -1.3866,-2.0798 -2.9811,-4.9222 -3.9517,-9.5673 z m 10.5378,8.5274 c 2.8424,-2.0797 5.2689,-5.1303 7.0021,-8.5967 h 4.5756 c -2.7038,4.0904 -6.7248,7.0715 -11.5777,8.5967 z m -16.0147,-56.29394 c 3.3277,0 5.8235,2.70377 5.8235,5.82359 0.069,3.25845 -2.6344,5.82345 -5.8235,5.82345 -3.1891,0 -5.82354,-2.7038 -5.82354,-5.82345 0,-3.18922 2.70374,-5.82359 5.82354,-5.82359 z"
       inkscape:connector-curvature="0" />
  </g>
</svg>
